<?xml version="1.0" encoding="iso-8859-1"?>
<!-- Generator: Adobe Illustrator 16.0.0, SVG Export Plug-In . SVG Version: 6.00 Build 0)  -->
<!DOCTYPE svg PUBLIC "-//W3C//DTD SVG 1.1//EN" "http://www.w3.org/Graphics/SVG/1.1/DTD/svg11.dtd">
<svg version="1.1" id="&#x5716;&#x5C64;_1" xmlns="http://www.w3.org/2000/svg" xmlns:xlink="http://www.w3.org/1999/xlink" x="0px"
	 y="0px" width="225.294px" height="113.913px" viewBox="0 0 225.294 113.913" style="enable-background:new 0 0 225.294 113.913;"
	 xml:space="preserve">
<g>
	<g>
		<g>
			<g>
				<path style="fill:#02F694;" d="M12.636,74.637c-2.022,0.714-3.476,1.586-5.229,2.769c-1.431,0.964-3.252,1.684-4.397,3.011
					c-1.518,1.757-1.883,3.943-1.934,6.195c-0.017,0.743-0.51,1.173-1.075,1.296v11.95c0,4.854,3.936,8.79,8.79,8.79
					c4.855,0,8.79-3.936,8.79-8.79v-26.44C15.924,73.765,14.22,74.078,12.636,74.637z"/>
				<path style="fill:#02F694;" d="M52.441,22.06c-1.256-4.689-6.076-9.472-10.766-8.215l-21.789,5.838
					C8.736,22.67,0.001,34.054,0.001,45.598v9.336c0.448,0.075,0.842,0.376,0.965,0.972c0.699,3.388,5.158,3.058,7.745,2.41
					c2.97-0.744,5.937-1.536,8.87-2.415V45.598c0-3.648,3.332-7.99,6.856-8.935l21.789-5.838
					C50.915,29.568,53.698,26.749,52.441,22.06z"/>
			</g>
			<path style="fill:#02F694;" d="M1.941,88.499H0C0,77.2,11.496,74.365,11.612,74.338l32.648-8.637
				c1.976-0.529,3.627-1.797,4.649-3.568c1.023-1.771,1.295-3.835,0.766-5.811c-1.093-4.078-5.3-6.509-9.38-5.416l-32.07,8.481
				c-2.701,0.724-4.821,0.515-6.3-0.623C0.016,57.295-0.001,54.862,0,54.759l1.941,0.004c0,0.01,0.029,1.597,1.181,2.471
				c0.975,0.74,2.523,0.834,4.602,0.277l32.069-8.48c5.115-1.371,10.389,3.676,11.758,8.788c0.664,2.477,0.323,3.064-0.959,5.284
				c-1.281,2.221-3.352,3.81-5.829,4.474L12.087,76.22C11.651,76.326,1.941,78.797,1.941,88.499z"/>
		</g>
		<g>
			<g>
				<path style="fill:#02F694;" d="M191.641,99.143c-4.331,0-8.432-1.322-11.754-3.872c-4.661-3.577-7.334-9.238-7.334-15.532V49.63
					c0-16.278,10.656-35.97,28.489-40.749l13.186-3.533c4.687-1.256,9.509,1.527,10.765,6.216c1.257,4.689-1.526,9.509-6.215,10.766
					l-13.186,3.533c-9.11,2.441-15.46,14.485-15.46,23.768v30.108c0,0.761,0.176,1.369,0.457,1.585
					c0.303,0.232,1.092,0.387,2.321,0.058l21.316-5.712c4.69-1.257,9.51,1.526,10.766,6.216c1.257,4.688-1.526,9.509-6.215,10.765
					l-21.317,5.713C195.507,98.885,193.552,99.143,191.641,99.143z"/>
			</g>
		</g>
		<g>
			<g>
				<path style="fill:#02F694;" d="M108.947,76.837c-1.256-4.688-6.075-7.472-10.766-6.215L76.393,76.46
					c-0.918,0.246-1.574,0.168-1.816-0.019c-0.243-0.187-0.489-0.801-0.489-1.75V59.973c-3.356,0.251-7.507,2.19-10.212,3.877
					c-2.632,1.64-4.061,4.024-5.935,6.218c-0.245,0.89-0.362,1.829-0.377,2.899c-0.01,0.741-0.495,1.17-1.057,1.295v0.43
					c0,6.383,2.686,12.104,7.367,15.697c3.261,2.502,7.268,3.801,11.483,3.801c1.837,0,3.714-0.247,5.586-0.748l21.789-5.839
					C107.421,86.347,110.204,81.526,108.947,76.837z"/>
				<path style="fill:#02F694;" d="M57.84,42.567c0.843,4.97,10.528,2.041,16.247,0.262V32.056c0-3.648,3.332-7.99,6.856-8.935
					l21.789-5.838c4.688-1.256,7.472-6.076,6.215-10.765c-1.256-4.689-6.075-7.472-10.766-6.216L76.393,6.14
					c-11.15,2.988-19.886,14.372-19.886,25.916v9.524C57.107,41.503,57.708,41.787,57.84,42.567z"/>
			</g>
			<path style="fill:#02F694;" d="M58.449,74.957h-1.942c0-11.299,11.497-14.135,11.613-14.162l32.647-8.636
				c1.977-0.529,3.628-1.797,4.65-3.568c1.023-1.771,1.295-3.835,0.766-5.812c-1.093-4.078-5.3-6.509-9.38-5.415l-32.07,8.48
				c-2.701,0.725-4.822,0.515-6.3-0.623c-1.91-1.469-1.927-3.902-1.927-4.005l1.942,0.005c0,0.01,0.029,1.597,1.181,2.471
				c0.975,0.74,2.523,0.834,4.601,0.277l32.07-8.481c5.115-1.371,10.388,1.676,11.758,6.788c0.664,2.477,0.323,5.064-0.959,7.285
				s-3.353,3.81-5.829,4.473l-32.677,8.644C68.158,62.784,58.449,65.254,58.449,74.957z"/>
		</g>
		<path style="fill:#02F694;" d="M123.31,53.5c3.77,0,6.836,3.067,6.836,6.837v45.907c-1.681-1.447-4.047-3.284-6.836-3.284
			c-3.683,0-6.837-4.699-6.837-8.547V60.337C116.473,56.567,119.539,53.5,123.31,53.5 M123.31,51.547c-4.855,0-8.79,3.936-8.79,8.79
			v34.076c0,4.854,3.935,10.5,8.79,10.5c3.722,0,6.902,4.686,8.185,4.686c0.391,0,0.604-0.435,0.604-1.567V60.337
			C132.099,55.482,128.164,51.547,123.31,51.547L123.31,51.547z"/>
		<path style="fill:#02F694;" d="M138.769,112.988c17.936-4.38,28.49-24.471,28.49-40.748V42.132c0-6.294-2.673-11.956-7.335-15.533
			c-4.788-3.674-11.192-4.801-17.572-3.091l-21.317,5.712c-4.689,1.256-7.473,6.076-6.216,10.765
			c1.257,4.689,6.076,7.471,10.766,6.216l21.317-5.712c1.228-0.329,2.018-0.175,2.321,0.057c0.281,0.216,0.456,0.824,0.456,1.585
			V72.24c0,8.233-4.477,18.071-11.85,22.222c-4.913,2.767-16.235,7.445-20.359,1.003c-0.615-0.961-1.034-2.516-1.034-3.677
			c0-1.766-1.916,2.625-1.916,2.625S114.508,118.913,138.769,112.988z"/>
	</g>
</g>
</svg>
